<svg xmlns="http://www.w3.org/2000/svg" width="210" height="143" viewBox="0 0 210 143" fill="none"><g clip-path="url(#clip0_572_406)"><path d="M26.9629 107.557V90.5195H28.1481V107.557H26.9629Z" fill="white"></path><path d="M54.3698 90.5195V91.7047H47.6291V107.557H46.4439V91.7047H39.7031V90.5195H54.3698Z" fill="white"></path><path d="M65.7773 107.557V90.5195H76.8144V91.7047H66.9625V98.4455H74.6662V99.6306H66.9625V106.297H76.8144V107.557H65.7773Z" fill="white"></path><path d="M102.074 107.557H100.518L94.4444 100.297L88.9629 107.853V90.5195H90.1481V104.149L100.074 90.5195H101.555L95.1851 99.2603L102.074 107.557Z" fill="white"></path><path d="M119.481 107.778C117.926 107.778 116.518 107.408 115.185 106.593C113.852 105.778 112.815 104.741 112.074 103.408C111.333 102.075 110.889 100.593 110.889 99.0376C110.889 97.4821 111.259 96.0006 112.074 94.6672C112.815 93.3339 113.852 92.2969 115.185 91.4821C116.518 90.6672 117.926 90.2969 119.481 90.2969C120.666 90.2969 121.852 90.5191 122.963 91.0376C124.074 91.5561 125.037 92.2228 125.852 93.1117L124.963 93.9265C124.296 93.1117 123.407 92.5191 122.518 92.0747C121.555 91.6302 120.592 91.408 119.555 91.408C118.222 91.408 116.963 91.7784 115.852 92.445C114.741 93.1117 113.778 94.0006 113.111 95.1858C112.444 96.3709 112.074 97.6302 112.074 98.9635C112.074 100.297 112.444 101.556 113.111 102.741C113.778 103.927 114.666 104.815 115.852 105.482C116.963 106.149 118.222 106.519 119.555 106.519C120.666 106.519 121.703 106.297 122.741 105.778C123.778 105.26 124.592 104.593 125.333 103.704L126.296 104.445C125.481 105.482 124.444 106.297 123.333 106.815C122 107.482 120.741 107.778 119.481 107.778Z" fill="white"></path><path d="M145.259 107.778C143.703 107.778 142.296 107.408 140.962 106.593C139.629 105.778 138.592 104.741 137.851 103.408C137.11 102.075 136.666 100.593 136.666 99.0376C136.666 97.4821 137.036 96.0006 137.851 94.6672C138.592 93.3339 139.703 92.2969 140.962 91.4821C142.296 90.7413 143.703 90.2969 145.259 90.2969C146.814 90.2969 148.222 90.6672 149.555 91.4821C150.888 92.2228 151.925 93.3339 152.666 94.6672C153.407 96.0006 153.851 97.4821 153.851 99.0376C153.851 100.593 153.481 102.075 152.666 103.408C151.925 104.741 150.814 105.778 149.555 106.593C148.222 107.334 146.814 107.778 145.259 107.778ZM145.259 91.5561C143.925 91.5561 142.666 91.9265 141.555 92.5932C140.444 93.2598 139.481 94.1487 138.814 95.3339C138.147 96.445 137.777 97.7043 137.777 99.1117C137.777 100.445 138.147 101.704 138.814 102.889C139.481 104.001 140.37 104.964 141.555 105.63C142.666 106.297 143.925 106.667 145.259 106.667C146.592 106.667 147.851 106.297 148.962 105.63C150.073 104.964 150.962 104.075 151.629 102.889C152.296 101.778 152.592 100.519 152.592 99.1117C152.592 97.7784 152.296 96.5191 151.629 95.3339C150.962 94.2228 150.073 93.2598 148.962 92.5932C147.851 91.9265 146.592 91.5561 145.259 91.5561Z" fill="white"></path><path d="M181.63 107.556V94.0747L174.075 104.889L166.445 94.0747V107.556H165.26V90.2969L174.075 102.741L182.815 90.2969V107.556H181.63Z" fill="white"></path><path d="M88.6678 23.4082H84.5938V27.4823H88.6678V23.4082Z" fill="#5E4F9B"></path><path d="M88.6678 16.1484H84.5938V20.2225H88.6678V16.1484Z" fill="#38276C"></path><path d="M105.927 48.1486L133.186 11.0375L129.557 8.74121L88.5936 65.0375V37.482H84.5195V77.7042L103.482 51.7042L124.594 76.7412H130.001L105.927 48.1486Z" fill="white"></path><path d="M88.5936 30.2969H84.5195V34.3709H88.5936V30.2969Z" fill="#7C72B2"></path><path d="M47.2593 124.445H47.0371V124.223V117.112V116.89H47.2593H49.926C51.6297 117.038 52.963 118.741 52.8149 120.667C52.963 122.593 51.7038 124.297 49.926 124.445H47.2593ZM47.4816 124.001H49.926C51.4075 123.853 52.5186 122.371 52.3704 120.667C52.5186 118.964 51.4075 117.482 49.926 117.334H47.4816V124.001Z" fill="white"></path><path d="M47.259 124.667H46.8887V116.741H49.9998C51.8516 116.889 53.259 118.667 53.0368 120.741C53.185 122.741 51.8516 124.519 49.9998 124.667H47.259ZM47.259 124.297H49.9257C51.5553 124.149 52.8146 122.519 52.6664 120.741C52.8146 118.889 51.6294 117.26 49.9998 117.112H47.259V124.297ZM47.4813 124.223H47.3331V117.186H49.9257C51.5553 117.334 52.7405 118.889 52.5924 120.667C52.7405 122.445 51.5553 124.075 49.9998 124.223H47.4813ZM47.7035 123.852H49.9257C51.3331 123.704 52.2961 122.297 52.222 120.741V120.667C52.3702 119.112 51.3331 117.704 49.9257 117.556H47.7035V123.852Z" fill="white"></path><path d="M55.2593 118.223H55.0371V117.778H55.2593H55.4816V118.223H55.2593ZM55.0371 119.334V119.112H55.4816V119.334V124.223V124.445H55.0371V124.223V119.334Z" fill="white"></path><path d="M55.7035 124.667H54.8887V118.963H55.7035V124.667ZM55.259 124.297H55.3331V119.334H55.259V124.297ZM55.7035 118.445H54.8887V117.63H55.7035V118.445ZM55.259 118.074H55.3331V118L55.259 118.074Z" fill="white"></path><path d="M57.4824 121.778C57.4824 120.297 58.5935 119.111 59.9269 119.111C60.7417 119.111 61.4824 119.556 61.9269 120.222V119.334V119.111H62.3713V119.334V124.222C62.3713 125.334 61.1861 126.519 59.9269 126.519C59.3343 126.519 58.7417 126.222 58.2972 125.852L58.1491 125.704L58.4454 125.408L58.5935 125.556C58.9639 125.926 59.4824 126.148 59.9269 126.148C60.8898 126.148 61.9269 125.185 61.9269 124.297V123.408C61.4824 124.074 60.7417 124.519 59.9269 124.519C58.5935 124.445 57.4824 123.259 57.4824 121.778ZM57.9269 121.778C57.9269 122.963 58.8158 124 59.9269 124C61.038 124 61.9269 122.963 61.9269 121.778C61.9269 120.519 61.038 119.556 59.9269 119.556C58.8158 119.556 57.9269 120.593 57.9269 121.778Z" fill="white"></path><path d="M59.9266 126.741C59.334 126.741 58.6673 126.445 58.1488 126L57.8525 125.704L58.371 125.111L58.6673 125.407C59.0377 125.778 59.4821 125.926 59.9266 125.926C60.8155 125.926 61.7044 125.037 61.7044 124.296V123.926C61.1858 124.445 60.5932 124.741 59.9266 124.741C58.4451 124.741 57.334 123.482 57.334 121.926C57.334 120.37 58.5192 119.037 59.9266 119.037C60.5932 119.037 61.2599 119.333 61.7044 119.852V119.037H62.5192V119.482V124.37C62.5192 125.482 61.1858 126.741 59.9266 126.741ZM58.2969 125.63C58.7414 126.074 59.334 126.296 59.8525 126.296C60.9636 126.296 62.0747 125.185 62.0747 124.222V119.333H62.0006V119.407V120.963L61.6303 120.445C61.1858 119.778 60.5192 119.407 59.7784 119.407C58.5192 119.407 57.5562 120.519 57.5562 121.926C57.5562 123.259 58.5932 124.37 59.7784 124.37C60.5192 124.37 61.1858 124 61.6303 123.333L62.0006 122.815V124.37C62.0006 125.407 60.8895 126.37 59.8525 126.37C59.334 126.37 58.8155 126.148 58.371 125.704L58.2969 125.63ZM59.9266 124.222C58.7414 124.222 57.7784 123.111 57.7784 121.852C57.7784 120.593 58.7414 119.482 59.9266 119.482C61.1118 119.482 62.0747 120.593 62.0747 121.852C62.0747 123.111 61.1118 124.222 59.9266 124.222ZM59.9266 119.778C58.8895 119.778 58.1488 120.667 58.1488 121.852C58.1488 123.037 58.9636 123.926 59.9266 123.926C60.8895 123.926 61.7044 123.037 61.7044 121.852C61.7044 120.667 60.8895 119.778 59.9266 119.778Z" fill="white"></path><path d="M64.9625 118.223H64.7402V117.778H64.9625H65.1847V118.223H64.9625ZM64.7402 119.334V119.112H65.1847V119.334V124.223V124.445H64.7402V124.223V119.334Z" fill="white"></path><path d="M65.4066 124.667H64.5918V118.963H65.4066V124.667ZM64.9622 124.297L65.0362 119.334H64.9622V124.297ZM65.4066 118.445H64.5918V117.63H65.4066V118.445ZM64.9622 118.074H65.0362V118L64.9622 118.074Z" fill="white"></path><path d="M68.5184 119.556V122.963V124.223V124.445H68.074V124.223V122.963V119.556H67.1851H66.9629V119.112H67.1851H68.074V117.926V117.704H68.5184V117.926V119.112H69.4073H69.6296V119.556H69.4073H68.5184Z" fill="white"></path><path d="M68.6662 124.667H67.8513V119.778H66.7402V118.963H67.8513V117.556H68.6662V118.963H69.7773V119.778H68.6662V124.667ZM68.2217 124.296H68.2958V119.408H69.4069V119.333H68.2958V117.926H68.2217V119.333H67.1106V119.408H68.2217V124.296Z" fill="white"></path><path d="M71.1113 121.778C71.1113 120.297 72.2224 119.111 73.5558 119.111C74.3706 119.111 75.1113 119.556 75.5558 120.222V119.334V119.111H76.0002V119.334V121.778V124.222V124.445H75.5558V124.222V123.334C75.1113 124 74.3706 124.445 73.5558 124.445C72.2224 124.445 71.1113 123.259 71.1113 121.778ZM71.5558 121.778C71.5558 122.963 72.4447 124 73.5558 124C74.6669 124 75.5558 122.963 75.5558 121.778C75.5558 120.519 74.6669 119.556 73.5558 119.556C72.4447 119.556 71.5558 120.593 71.5558 121.778Z" fill="white"></path><path d="M76.2223 124.667H75.4075V123.852C74.889 124.37 74.2964 124.667 73.6297 124.667C72.1482 124.667 71.0371 123.407 71.0371 121.852C71.0371 120.296 72.2223 118.963 73.6297 118.963C74.2964 118.963 74.963 119.259 75.4075 119.778V118.963H76.2223V124.667ZM75.7779 124.296H75.8519V119.333H75.7779V120.889L75.4075 120.37C74.963 119.704 74.2964 119.333 73.5556 119.333C72.2964 119.333 71.3334 120.444 71.3334 121.852C71.3334 123.185 72.3704 124.296 73.5556 124.296C74.2964 124.296 74.963 123.926 75.4075 123.259L75.7779 122.741V124.296ZM73.5556 124.222C72.3704 124.222 71.4075 123.111 71.4075 121.852C71.4075 120.593 72.3704 119.481 73.5556 119.481C74.7408 119.481 75.7038 120.593 75.7038 121.852C75.7038 123.111 74.7408 124.222 73.5556 124.222ZM73.5556 119.778C72.5186 119.778 71.7779 120.667 71.7779 121.852C71.7779 123.037 72.5927 123.926 73.5556 123.926C74.5186 123.926 75.3334 123.037 75.3334 121.852C75.3334 120.667 74.5927 119.778 73.5556 119.778Z" fill="white"></path><path d="M78.4453 116.889V116.667H78.8898V116.889V124.223V124.445H78.4453V124.223V116.889Z" fill="white"></path><path d="M79.0375 124.667H78.2227V116.519H79.0375V124.667ZM78.593 124.296L78.6671 116.889H78.593V124.296Z" fill="white"></path><path d="M92.0751 120.89V124.223V124.445H91.6306V124.223V120.89H86.964V124.223V124.445H86.5195V124.223V120.89V120.445V117.112V116.89H86.964V117.112V120.445H91.6306V117.112V116.89H92.0751V117.112V120.445V120.89Z" fill="white"></path><path d="M92.297 124.667H91.4822V121.112H87.1859V124.667H86.3711V116.741H87.1859V120.297H91.4822V116.741H92.297V124.667ZM91.8526 124.297L91.9266 117.112H91.8526V120.667H86.8155V117.112H86.7415V124.297H86.8155V120.741H91.8526V124.297Z" fill="white"></path><path d="M98.5192 123.111L98.8896 123.408C98.5933 123.852 97.9266 124.519 96.8155 124.445C95.4822 124.445 94.3711 123.259 94.3711 121.778C94.3711 120.297 95.4822 119.111 96.8155 119.111C98.1489 119.111 99.26 120.297 99.26 121.778V122H99.0378H94.8155C94.8896 123.111 95.7785 124 96.8155 124C97.7044 124 98.2229 123.556 98.5192 123.111ZM94.7415 121.556H98.7415C98.7415 120.519 97.8526 119.556 96.7415 119.556C95.7044 119.556 94.8155 120.445 94.7415 121.556Z" fill="white"></path><path d="M96.7409 124.667C95.2594 124.667 94.0742 123.407 94.0742 121.852C94.0742 120.296 95.2594 118.963 96.6668 118.963C98.0742 118.963 99.2594 120.222 99.2594 121.852V122.222H94.815C94.9631 123.185 95.7038 123.852 96.5927 123.852C97.2594 123.852 97.7779 123.555 98.1483 123.037L98.2224 122.889L98.889 123.407L98.815 123.555C98.4446 124.222 97.7039 124.667 96.7409 124.667ZM96.7409 119.333C95.4816 119.333 94.5187 120.444 94.5187 121.852C94.5187 123.185 95.5557 124.296 96.7409 124.296C97.4816 124.296 98.1483 124 98.5927 123.481L98.5187 123.407C98.0742 123.926 97.4816 124.222 96.7409 124.222C95.6298 124.222 94.6668 123.259 94.5927 122.074V121.852H99.0372C98.9631 120.444 98.0001 119.333 96.7409 119.333ZM98.889 121.778H94.5187V121.555C94.5927 120.296 95.5557 119.407 96.6668 119.407C97.852 119.407 98.815 120.444 98.815 121.63V121.778H98.889ZM94.9631 121.407H98.5187C98.4446 120.593 97.7039 119.778 96.7409 119.778C95.852 119.778 95.1113 120.444 94.9631 121.407Z" fill="white"></path><path d="M100.666 121.778C100.666 120.297 101.777 119.111 103.11 119.111C103.925 119.111 104.666 119.556 105.11 120.222V119.334V119.111H105.555V119.334V121.778V124.222V124.445H105.11V124.222V123.334C104.666 124 103.925 124.445 103.11 124.445C101.777 124.445 100.666 123.259 100.666 121.778ZM101.11 121.778C101.11 122.963 101.999 124 103.11 124C104.222 124 105.11 122.963 105.11 121.778C105.11 120.519 104.222 119.556 103.11 119.556C101.999 119.556 101.11 120.593 101.11 121.778Z" fill="white"></path><path d="M105.777 124.667H104.962V123.852C104.444 124.37 103.851 124.667 103.184 124.667C101.703 124.667 100.592 123.407 100.592 121.852C100.592 120.296 101.777 118.963 103.184 118.963C103.851 118.963 104.518 119.259 104.962 119.778V118.963H105.777V124.667ZM105.333 124.296H105.407V119.333H105.333V120.889L104.962 120.37C104.518 119.704 103.851 119.333 103.11 119.333C101.851 119.333 100.888 120.444 100.888 121.852C100.888 123.185 101.925 124.296 103.11 124.296C103.851 124.296 104.518 123.926 104.962 123.259L105.333 122.741V124.296ZM103.11 124.222C101.925 124.222 100.888 123.111 100.888 121.852C100.888 120.593 101.851 119.481 103.11 119.481C104.295 119.481 105.258 120.593 105.258 121.852C105.258 123.111 104.37 124.222 103.11 124.222ZM103.11 119.778C102.073 119.778 101.258 120.667 101.258 121.852C101.258 123.037 102.073 123.926 103.11 123.926C104.147 123.926 104.888 123.037 104.888 121.852C104.888 120.667 104.147 119.778 103.11 119.778Z" fill="white"></path><path d="M108 116.889V116.667H108.444V116.889V124.223V124.445H108V124.223V116.889Z" fill="white"></path><path d="M108.592 124.667H107.777V116.519H108.592V124.667ZM108.148 124.296L108.222 116.889H108.148V124.296Z" fill="white"></path><path d="M111.63 119.556V122.963V124.223V124.445H111.185V124.223V122.963V119.556H110.296H110.074V119.112H110.296H111.185V117.926V117.704H111.63V117.926V119.112H112.519H112.741V119.556H112.519H111.63Z" fill="white"></path><path d="M111.852 124.667H111.037V119.778H109.926V118.963H111.037V117.556H111.852V118.963H112.963V119.778H111.852V124.667ZM111.407 124.296H111.481V119.408H112.592V119.333H111.481V117.926H111.407V119.333H110.296V119.408H111.407V124.296Z" fill="white"></path><path d="M115.185 120.001C115.555 119.482 116.148 119.112 116.814 119.112C118 119.112 118.889 120.149 118.889 121.334V124.223V124.445H118.518V124.223V121.334C118.518 120.371 117.777 119.556 116.889 119.556C116 119.556 115.259 120.371 115.259 121.334V121.556V124.223V124.445H114.814V124.223V121.556V121.334V117.556V117.334H115.259V117.556V120.001H115.185Z" fill="white"></path><path d="M119.184 124.667H118.37V124.297V121.408C118.37 120.519 117.703 119.778 116.888 119.778C116.073 119.778 115.407 120.519 115.407 121.408V124.667H114.592V117.26H115.407V119.556C115.851 119.186 116.37 118.963 116.888 118.963C118.147 118.963 119.184 120.075 119.184 121.408V124.667ZM118.74 124.297L118.814 121.408C118.814 120.297 117.925 119.334 116.888 119.334C116.296 119.334 115.777 119.63 115.407 120.149L115.036 120.593V117.63H114.962V124.297H115.036V121.408C115.036 120.297 115.851 119.408 116.888 119.408C117.925 119.408 118.74 120.297 118.74 121.408V124.297Z" fill="white"></path><path d="M127.481 120.445L129.185 116.593L130.888 120.445H130.962V120.593L132.518 124.074L132.666 124.371H132.148L132.073 124.222L130.592 120.815H127.777L126.296 124.222L126.222 124.371H125.703L125.851 124.074L127.407 120.593V120.445H127.481ZM130.37 120.445L129.185 117.63L127.999 120.445H130.37Z" fill="white"></path><path d="M132.888 124.667H131.999L131.925 124.445L130.443 121.111H127.851L126.295 124.667H125.406L125.703 124.074L127.184 120.593V120.297H127.332L129.184 116.148L131.036 120.297H131.184V120.593L132.888 124.667ZM132.221 124.297H132.295H132.221L129.11 117.037L125.925 124.297H125.999L127.554 120.741H130.591L132.221 124.297ZM130.666 120.667H127.628L129.11 117.26L130.666 120.667ZM128.221 120.297H130.073L129.11 118.148L128.221 120.297Z" fill="white"></path><path d="M133.777 121.778C133.777 120.297 134.888 119.111 136.222 119.111C137.037 119.111 137.777 119.556 138.222 120.222V119.334V119.111H138.666V119.334V124.222C138.666 125.334 137.481 126.519 136.222 126.519C135.629 126.519 135.037 126.222 134.592 125.852L134.444 125.704L134.74 125.408L134.888 125.556C135.259 125.926 135.777 126.148 136.222 126.148C137.185 126.148 138.222 125.185 138.222 124.297V123.408C137.777 124.074 137.037 124.519 136.222 124.519C134.888 124.445 133.777 123.259 133.777 121.778ZM134.222 121.778C134.222 122.963 135.111 124 136.222 124C137.333 124 138.222 122.963 138.222 121.778C138.222 120.519 137.333 119.556 136.222 119.556C135.111 119.556 134.222 120.593 134.222 121.778Z" fill="white"></path><path d="M136.221 126.741C135.629 126.741 134.962 126.445 134.444 126L134.147 125.704L134.666 125.111L134.962 125.407C135.333 125.778 135.777 125.926 136.221 125.926C137.11 125.926 138.073 125.037 138.073 124.296V123.926C137.555 124.445 136.962 124.741 136.221 124.741C134.74 124.741 133.629 123.482 133.629 121.926C133.629 120.37 134.814 119.037 136.221 119.037C136.888 119.037 137.555 119.333 138.073 119.852V119.037H138.888V119.482V124.37C138.888 125.482 137.555 126.741 136.221 126.741ZM134.666 125.63C135.11 126.074 135.703 126.296 136.221 126.296C137.333 126.296 138.444 125.185 138.444 124.222V119.333H138.37V119.407V120.963L137.999 120.445C137.555 119.778 136.888 119.407 136.147 119.407C134.888 119.407 133.925 120.519 133.925 121.926C133.925 123.259 134.962 124.37 136.147 124.37C136.888 124.37 137.555 124 137.999 123.333L138.37 122.815V124.37C138.37 125.407 137.259 126.37 136.147 126.37C135.629 126.37 135.11 126.148 134.666 125.704V125.63ZM136.221 124.222C135.036 124.222 134.073 123.111 134.073 121.852C134.073 120.593 135.036 119.482 136.221 119.482C137.407 119.482 138.444 120.593 138.444 121.852C138.444 123.111 137.407 124.222 136.221 124.222ZM136.221 119.778C135.184 119.778 134.444 120.667 134.444 121.852C134.444 123.037 135.259 123.926 136.221 123.926C137.184 123.926 138.073 123.037 138.073 121.852C138.073 120.667 137.259 119.778 136.221 119.778Z" fill="white"></path><path d="M144.814 123.111L145.184 123.408C144.814 123.852 144.221 124.519 143.036 124.445C141.703 124.445 140.592 123.259 140.592 121.778C140.592 120.297 141.703 119.111 143.036 119.111C144.37 119.111 145.481 120.297 145.481 121.778V122H145.258H141.036C141.11 123.111 141.999 124 143.036 124C144.073 124 144.518 123.556 144.814 123.111ZM141.11 121.556H145.11C145.11 120.519 144.221 119.556 143.11 119.556C141.999 119.556 141.184 120.445 141.11 121.556Z" fill="white"></path><path d="M143.11 124.667C141.629 124.667 140.443 123.407 140.443 121.852C140.443 120.296 141.629 118.963 143.036 118.963C144.517 118.963 145.703 120.222 145.703 121.852V122.222H141.258C141.406 123.185 142.147 123.852 143.036 123.852C143.703 123.852 144.221 123.555 144.592 123.037L144.666 122.889L145.332 123.407L145.258 123.555C144.814 124.222 144.073 124.667 143.11 124.667ZM143.11 119.333C141.851 119.333 140.888 120.444 140.888 121.852C140.888 123.185 141.925 124.296 143.11 124.296C143.851 124.296 144.517 124 144.962 123.481L144.888 123.407C144.443 123.926 143.851 124.222 143.11 124.222C141.999 124.222 141.036 123.259 140.962 122.074V121.852H145.406C145.332 120.444 144.295 119.333 143.11 119.333ZM145.258 121.778H140.888V121.555C140.962 120.296 141.925 119.407 143.036 119.407C144.221 119.407 145.258 120.444 145.258 121.63V121.778ZM141.332 121.407H144.888C144.814 120.593 144.073 119.778 143.11 119.778C142.221 119.778 141.48 120.444 141.332 121.407Z" fill="white"></path><path d="M151.705 124.222V124.445H151.26V124.222V121.334C151.26 120.371 150.52 119.556 149.631 119.556C148.742 119.556 148.001 120.371 148.001 121.334V121.556V124.222V124.445H147.557V124.222V121.556V121.334V121.111C147.631 119.926 148.594 119.111 149.631 119.111C150.816 119.111 151.705 120.148 151.705 121.334V124.222Z" fill="white"></path><path d="M151.927 124.667H151.112V124.296V121.407C151.112 120.518 150.445 119.778 149.63 119.778C148.815 119.778 148.149 120.518 148.149 121.407V124.667H147.334V120.963C147.482 119.778 148.445 118.963 149.63 118.963C150.89 118.963 151.927 120.074 151.927 121.407V124.667ZM151.482 124.296L151.556 121.407C151.556 120.296 150.667 119.333 149.63 119.333C148.667 119.333 147.778 120.148 147.704 121.185V121.63V124.296H147.778V121.407C147.778 120.296 148.593 119.407 149.63 119.407C150.667 119.407 151.482 120.296 151.482 121.407V124.296Z" fill="white"></path><path d="M157.999 123.186L158.37 123.482C157.999 123.926 157.407 124.519 156.221 124.519C154.814 124.519 153.629 123.334 153.629 121.852C153.629 120.371 154.814 119.186 156.221 119.186C157.407 119.186 157.999 119.704 158.37 120.149L157.999 120.445C157.703 120.074 157.184 119.63 156.221 119.63C155.036 119.63 154.073 120.593 154.073 121.852C154.073 123.037 155.036 124.074 156.221 124.074C157.259 124 157.777 123.556 157.999 123.186Z" fill="white"></path><path d="M156.295 124.667C154.74 124.667 153.555 123.407 153.555 121.852C153.555 120.296 154.814 118.963 156.295 118.963C157.555 118.963 158.221 119.555 158.592 120L158.666 120.148L157.999 120.667L157.851 120.518C157.481 120.074 156.962 119.778 156.221 119.778C155.11 119.778 154.295 120.667 154.295 121.852C154.295 123.037 155.184 123.926 156.221 123.926C156.888 123.926 157.481 123.704 157.851 123.111L157.925 122.963L158.592 123.481L158.444 123.63C158.295 123.778 157.703 124.667 156.295 124.667ZM156.295 119.333C154.962 119.333 153.925 120.444 153.925 121.852C153.925 123.185 154.962 124.296 156.295 124.296C157.258 124.296 157.851 123.852 158.147 123.481L158.073 123.407C157.629 123.926 157.036 124.222 156.295 124.222C155.036 124.222 153.999 123.111 153.999 121.852C153.999 120.593 155.036 119.481 156.295 119.481C157.036 119.481 157.629 119.704 158.073 120.222L158.147 120.148C157.703 119.555 157.036 119.333 156.295 119.333Z" fill="white"></path><path d="M161.853 123.63L163.557 119.259L163.631 119.111H164.075L163.927 119.408L162.075 124.297C161.408 126.074 160.89 126.519 159.927 126.519H159.705V126.074H159.927C160.742 126.074 161.038 125.63 161.557 124.222L159.705 119.408L159.557 119.111H160.001L160.075 119.259L161.853 123.63Z" fill="white"></path><path d="M159.927 126.741H159.556V125.926H159.927C160.593 125.926 160.89 125.555 161.408 124.296L159.334 118.963H160.223L161.852 123.111L163.482 118.963H164.371L164.149 119.481L162.297 124.37C161.556 126.148 161.038 126.741 159.927 126.741ZM159.927 126.37C160.741 126.37 161.26 126.074 161.927 124.296L163.852 119.333H163.704L161.852 124.148L160.001 119.333H159.927V119.407L161.852 124.296V124.37C161.334 125.704 160.964 126.296 160.001 126.296V126.37H159.927Z" fill="white"></path></g><defs><clipPath id="clip0_572_406"><rect width="210" height="142.593" fill="white"></rect></clipPath></defs></svg>